<svg xmlns="http://www.w3.org/2000/svg" xmlns:xlink="http://www.w3.org/1999/xlink" version="1.1" width="377" height="104" enable-background="new 0 0 595.28 595.28" xml:space="preserve" style=""><rect id="backgroundrect" width="100%" height="100%" x="0" y="0" fill="none" stroke="none"/>

<g class="currentLayer" style=""><title>Layer 1</title><g id="svg_1" class="">
	<path fill="#FFFFFF" d="M129.122,67.5670012207031 c-6.283,0 -12.345,-4.52 -12.345,-13.667 c0,-9.259 6.062,-13.559 12.345,-13.559 c6.392,0 12.344,4.299 12.344,13.559 C141.466,63.15800122070311 135.514,67.5670012207031 129.122,67.5670012207031 L129.122,67.5670012207031 zM129.122,24.910001220703123 c-16.313,0 -29.099,12.014 -29.099,28.989 c0,16.974 12.786,29.098 29.099,29.098 c16.423000000000002,0 29.098,-12.124 29.098,-29.098 C158.22000000000003,36.92400122070313 145.545,24.910001220703123 129.122,24.910001220703123 L129.122,24.910001220703123 zM188.08999999999997,0.6610012207031275 c-13.337,0 -20.942,8.598 -20.942,21.163 v4.74 h-8.708 v14.108 h8.708 v40.672 h16.753 v-40.672 h19.289 v40.672 h16.754 v-40.672 h20.502 v40.672 h16.863 v-54.78 h-37.365 v-4.74 c0,-5.511 4.189,-6.834 7.164,-6.834 c2.426,0 4.08,0.33100000000000007 4.961,0.551 v-13.667 c-1.5430000000000001,-0.772 -5.18,-1.213 -8.047,-1.213 c-13.225,0 -20.832,8.598 -20.832,21.163 v4.74 h-19.289 v-4.74 c0,-5.511 3.968,-6.834 7.166,-6.834 c2.535,0 4.078,0.33100000000000007 4.959,0.551 v-13.557 C194.48200000000003,1.21300122070312 190.846,0.6610012207031275 188.08999999999997,0.6610012207031275 L188.08999999999997,0.6610012207031275 zM239.012,9.8100012207031 c0,5.401 4.41,9.81 9.811,9.81 c5.5120000000000005,0 9.811,-4.409 9.811,-9.81 c0,-5.511 -4.299,-9.81 -9.811,-9.81 C243.42200000000003,0.0000012207031261368684 239.012,4.299001220703133 239.012,9.8100012207031 L239.012,9.8100012207031 zM280.896,49.93100122070314 c0,-5.511 3.527,-9.59 9.037,-9.59 c6.062,0 8.928,4.079 8.928,9.479 v31.524 h16.754 v-34.389 c0,-12.015 -6.172,-21.824 -19.949,-21.824 c-5.621,0 -12.346,2.535 -15.32,7.715 v-6.282 h-16.203 v54.78 h16.754 V49.93100122070314 L280.896,49.93100122070314 zM320.354,84.4300012207031 c1.5430000000000001,9.811 11.574,19.51 27.336,19.51 c20.5,0 29.318,-13.667 29.318,-29.43 v-47.946 h-15.982 v5.841 c-1.5430000000000001,-2.865 -6.283,-6.833 -15.211,-6.833 c-14.99,0 -25.461,12.344 -25.461,26.784 c0,15.211 10.912,26.674 25.461,26.674 c7.938,0 12.676,-3.196 14.66,-6.172 v2.534 c0,9.92 -5.18,13.998 -13.557,13.998 c-6.283,0 -10.691,-3.857 -11.795,-9.147 L320.354,84.4300012207031 L320.354,84.4300012207031 zM348.9,64.48000122070312 c-6.723,0 -11.793,-4.6290000000000004 -11.793,-12.124 c0,-7.496 5.5120000000000005,-12.125 11.793,-12.125 c6.283,0 11.686,4.6290000000000004 11.686,12.125 C360.586,59.8510012207031 355.734,64.48000122070312 348.9,64.48000122070312 L348.9,64.48000122070312 z" id="svg_2"/>
	<path fill="#4FAF6C" d="M87.656,81.34400122070315 v-20.104 v-16.7 h-18.413 v-8.608 c0,-7.4 5.328,-9.176 9.620000000000001,-9.176 c3.404,0 5.476,0.44400000000000006 6.66,0.7400000000000001 v-18.204 c-2.072,-1.036 -6.956,-1.776 -10.656,-1.776 c-17.908,0 -28.119,11.544 -28.119,28.416 v8.608 v16.7 v20.104 H87.656 L87.656,81.34400122070315 z" id="svg_3"/>
	<path fill="#4FAF6C" d="M40.90899999999999,81.34400122070315 v-20.104 v-16.7 h-18.413 v-8.608 c0,-7.4 5.327,-9.176 9.619,-9.176 c3.404,0 5.476,0.44400000000000006 6.66,0.7400000000000001 v-18.204 c-2.072,-1.036 -6.956,-1.776 -10.656,-1.776 c-17.907,0 -28.119,11.544 -28.119,28.416 v8.608 v16.7 v20.104 H40.90899999999999 L40.90899999999999,81.34400122070315 z" id="svg_4"/>
</g></g></svg>